<?xml version="1.0" standalone="no"?><!DOCTYPE svg PUBLIC "-//W3C//DTD SVG 1.1//EN" "http://www.w3.org/Graphics/SVG/1.1/DTD/svg11.dtd"><svg t="1783394329031" class="icon" viewBox="0 0 1024 1024" version="1.1" xmlns="http://www.w3.org/2000/svg" p-id="8321" xmlns:xlink="http://www.w3.org/1999/xlink" width="200" height="200"><path d="M561.152 648.192c-21.504 0-37.888-17.408-37.888-37.888v-37.888c0-21.504 17.408-37.888 37.888-37.888 21.504 0 37.888 17.408 37.888 37.888v37.888c1.024 20.48-16.384 37.888-37.888 37.888zM324.608 648.192c-21.504 0-37.888-17.408-37.888-37.888v-37.888c0-21.504 17.408-37.888 37.888-37.888 21.504 0 37.888 17.408 37.888 37.888v37.888c0 20.48-17.408 37.888-37.888 37.888z" fill="#333C4F" p-id="8322"></path><path d="M514.048 992.256c-205.824 0-352.256-119.808-382.976-311.296-2.048-14.336-40.96-319.488 122.88-513.024 9.216-11.264 24.576-16.384 38.912-14.336 14.336 3.072 26.624 13.312 31.744 26.624 20.48 58.368 46.08 87.04 65.536 101.376C429.056 219.136 532.48 98.304 771.072 33.792c15.36-4.096 30.72 1.024 40.96 12.288 10.24 11.264 13.312 28.672 7.168 43.008-36.864 89.088-47.104 206.848-50.176 286.72 16.384-13.312 36.864-29.696 61.44-50.176 12.288-10.24 28.672-12.288 44.032-5.12 14.336 7.168 23.552 21.504 23.552 36.864V675.84c0 180.224-202.752 316.416-384 316.416z m-235.52-716.8c-94.208 165.888-66.56 391.168-65.536 393.216 23.552 152.576 134.144 241.664 302.08 241.664 139.264 0 301.056-103.424 301.056-235.52V443.392c-50.176 40.96-61.44 51.2-61.44 51.2-12.288 10.24-28.672 12.288-43.008 6.144-14.336-6.144-23.552-20.48-24.576-35.84 0-8.192-7.168-178.176 31.744-328.704C501.76 216.064 448.512 343.04 446.464 349.184c-7.168 17.408-25.6 28.672-44.032 25.6-9.216-1.024-72.704-12.288-123.904-99.328z" fill="#333C4F" p-id="8323"></path></svg>